<svg id="SvgjsSvg1012" width="288" height="288" xmlns="http://www.w3.org/2000/svg" version="1.1" xmlns:xlink="http://www.w3.org/1999/xlink" xmlns:svgjs="http://svgjs.com/svgjs"><defs id="SvgjsDefs1013"></defs><g id="SvgjsG1014"><svg xmlns="http://www.w3.org/2000/svg" viewBox="0 0 24 24" width="288" height="288"><path fill="#ffffff" d="M17 13H7a1 1 0 0 1 0-2h10a1 1 0 0 1 0 2Z" class="color6563ff svgShape"></path><path fill="#ffffff" d="M12 18a.997.997 0 0 1-.707-.293l-5-5a1 1 0 0 1 0-1.414l5-5a1 1 0 0 1 1.414 1.414L8.414 12l4.293 4.293A1 1 0 0 1 12 18Z" class="color6563ff svgShape"></path></svg></g></svg>